# xmcd CD database file
# Copyright (C) 1993-1998 Ti Kan
#
# Track frame offsets:
#  175
#  11382
#  21725
#  34295
#  45832
#  58177
#  67527
#  80785
#  90570
#  100750
#  113002
#  126175
#  138042
#  148725
#  160672
#  174390
#  186827
#  199075
#  210392
#  224652
#
# Disc length: 3167 seconds
#
# Revision: 1
# Processed by: cddbd v1.4b41PL1 Copyright (c) Steve Scherf et al.
# Submitted via: CDWizzard Release:4.35
#
DISCID=120c5d14
DTITLE=Various Artist - For Collectors Only - The Heartbeats/Shep And Th
DTITLE=e Limelights  Disc 2
DYEAR=1900
DGENRE=
TTITLE0=Heartbeats - Stars In The Sky (unreleased)
TTITLE1=Heartbeats - Crazy For You
TTITLE2=Heartbeats - Everybody's Somebody's Fool
TTITLE3=Heartbeats - Have Rock Will Roll
TTITLE4=Heartbeats - People Are Talking (fast version)
TTITLE5=Heartbeats - Be Mine, Be Mine (unreleased)
TTITLE6=Heartbeats - Wedding Bells
TTITLE7=Heartbeats - Tell Me (unreleased)
TTITLE8=Heartbeats - Hydromatic Drive (unreleased)
TTITLE9=Heartbeats - Two Loving Hearts
TTITLE10=Shep And The Limelites - Daddy's Home
TTITLE11=Shep And The Limelites - One Week From Today
TTITLE12=Shep And The Limelites - Three Steps From The Alter
TTITLE13=Shep And The Limelites - Our Anniversary
TTITLE14=Shep And The Limelites - Why, Why Won't You Believe Me
TTITLE15=Shep And The Limelites - What Did Daddy Do
TTITLE16=Shep And The Limelites - Remember Baby
TTITLE17=Shep And The Limelites - Gee Baby, What About You
TTITLE18=Shep And The Limelites - This I Know
TTITLE19=Shep And The Limelites - Ready For Your Love
EXTD=
EXTT0=
EXTT1=
EXTT2=
EXTT3=
EXTT4=
EXTT5=
EXTT6=
EXTT7=
EXTT8=
EXTT9=
EXTT10=
EXTT11=
EXTT12=
EXTT13=
EXTT14=
EXTT15=
EXTT16=
EXTT17=
EXTT18=
EXTT19=
PLAYORDER=
